<svg xmlns="http://www.w3.org/2000/svg" id="圖層_1" viewBox="0 0 512 512">
    <defs>
        <style>
            .cls-3{fill:#dca57d}.cls-2{fill:none}
        </style>
    </defs>
    <text fill="#dca57d" font-family="Futura-Medium, Futura" font-size="185px" font-weight="500" transform="translate(199.53 409.9)">
        1
    </text>
    <path d="M279.86 206.65h-.13a207.65 207.65 0 00-46.22 0h-.13c-49 5.43-94.74 28.43-129.49 65.12-38.28 40-60.76 93.63-63 150.23h431.49c-4.75-111.74-86.45-203.29-192.52-215.35zM256.62 239c-65.75 0-126.52 36.8-159.39 96.61a7.79 7.79 0 01-10.93 3.06 8.63 8.63 0 01-2.92-11.47c35.73-65 101.78-105 173.24-105a8.41 8.41 0 010 16.8zM272.62 189.12v-9h-32v9q7.95-.59 16-.57c5.38 0 10.7.2 16 .57z" class="cls-2"/>
    <path d="M103.89 271.77c34.75-36.69 80.48-59.69 129.49-65.12h.13a207.65 207.65 0 0 1 46.22 0h.13C385.93 218.71 467.63 310.26 472.38 422h16c-4.65-117.5-88.65-214.89-199.77-231.15v-19.1a8.21 8.21 0 0 0-8-8.41h-48a8.21 8.21 0 0 0-8 8.41v19.1C113.5 207.11 29.51 304.5 24.85 422h16c2.28-56.6 24.76-110.25 63.04-150.23zm136.73-91.62h32v9c-5.3-.37-10.63-.57-16-.57s-10.7.18-16 .57z" class="cls-3"/>
    <path d="M256.62 222.15c-71.46 0-137.51 40-173.24 105a8.63 8.63 0 002.92 11.47 7.79 7.79 0 0010.93-3.06c32.87-59.81 93.64-96.64 159.39-96.61a8.41 8.41 0 000-16.8zM491.5 441.5H39.62c-6.11 0-12.22-.08-18.32 0h-.8c-5.5 0-10.75 4.83-10.5 10.5a10.68 10.68 0 0010.5 10.5h451.88c6.11 0 12.22.08 18.32 0h.8c5.49 0 10.75-4.83 10.5-10.5a10.68 10.68 0 00-10.5-10.5z" class="cls-3"/>
</svg>
